{"title":"Impact.2008.Part.II.R5.DVDRIP.XviD-ZEKTORM","uid":4853952,"size":736066750,"categoryP":"video","categoryS":"movies","magnet":"?xt=urn:btih:fe457c94dbe11493f1534fb0adfc736394d21cbe&amp;dn=Impact.2008.Part.II.R5.DVDRIP.XviD-ZEKTORM&amp;tr=udp%3A%2F%2Ftracker.openbittorrent.com%3A80&amp;tr=udp%3A%2F%2Fopen.demonii.com%3A1337&amp;tr=udp%3A%2F%2Ftracker.coppersurfer.tk%3A6969&amp;tr=udp%3A%2F%2Fexodus.desync.com%3A6969","seeders":1,"leechers":1,"uploader":"blowley","files":2,"time":1239984089,"description":"Title                            : &quot;Impact&quot;\nYear                             : 2008\nGenre                            : Action | Adventure | Sci-Fi\niMDB URL                         : http://www.imdb.com/title/tt1227637/\n\nComplete name                    : Impact.2008.Part.II.DVDRIP.XviD-ZEKTORM.avi\nFormat                           : AVI\nFile size                        : 702 MiB\nDuration                         : 1h 31mn\nOverall bit rate                 : 1073 Kbps\nSource                           : DVD PAL R5\n\nVideo\nFormat                           : MPEG-4 Visual\nFormat profile                   : Streaming Video@L1\nCodec ID                         : DX50\nCodec ID/Hint                    : DivX 5\nDuration                         : 1h 31mn\nBit rate                         : 938 Kbps\nWidth                            : 1024 pixels\nHeight                           : 576 pixels\nDisplay aspect ratio             : 16/9\nFrame rate                       : 25.000 fps\nResolution                       : 24 bits\nColorimetry                      : 4:2:0\nScan type                        : Progressive\nBits/(Pixel*Frame)               : 0.064\nStream size                      : 613 MiB (87%)\nWriting library                  : XviD\n\nAudio\nFormat                           : MPEG Audio\nFormat version                   : Version 1\nFormat profile                   : Layer 3\nCodec ID                         : 55\nCodec ID/Hint                    : MP3\nDuration                         : 1h 31mn\nBit rate mode                    : Constant\nBit rate                         : 128 Kbps\nMinimum bit rate                 : 128 Kbps\nChannel(s)                       : 2 channels\nSampling rate                    : 48.0 KHz\nResolution                       : 16 bits\nStream size                      : 83.8 MiB (12%)\nWriting library                  : LAME3.98r\nEncoding settings                : CBR\n","torrent":{"xt":"urn:btih:fe457c94dbe11493f1534fb0adfc736394d21cbe","amp;dn":"Impact.2008.Part.II.R5.DVDRIP.XviD-ZEKTORM","amp;tr":["udp%3A%2F%2Ftracker.openbittorrent.com%3A80","udp%3A%2F%2Fopen.demonii.com%3A1337","udp%3A%2F%2Ftracker.coppersurfer.tk%3A6969","udp%3A%2F%2Fexodus.desync.com%3A6969"],"infoHash":"fe457c94dbe11493f1534fb0adfc736394d21cbe","infoHashBuffer":{"type":"Buffer","data":[254,69,124,148,219,225,20,147,241,83,79,176,173,252,115,99,148,210,28,190]},"announce":[],"urlList":[]}}